<svg width="66" height="66" viewBox="0 0 66 66" fill="none" xmlns="http://www.w3.org/2000/svg">
<path d="M17.644 28.9135L16.1845 29.7504V22.2532L19.2119 20.5355V19.1158L22.6127 17.1046V18.7086L25.6051 17.0826V14.4098L26.9375 13.5947L26.946 14.9838L29.9345 13.275L29.9301 11.7764L34.2067 9.21734L34.2241 13.7214L35.8978 12.7226L35.8851 15.5445L40.4202 18.2261L40.3982 15.7637L43.0404 17.3237V18.9141L46.3355 20.8336L46.3309 23.2657L49.7884 21.3068V28.8479L48.4059 29.5926L48.3967 34.833L49.7884 34.0967V42.1947L47.2448 43.6273L47.2355 45.3845L42.9372 47.9477L42.9279 46.2603L40.4921 47.6498V49.5033L39.0331 50.3708L39.0597 51.7117L37.5344 52.5837L37.517 51.3401L35.9176 52.2471L35.913 53.6833L31.3999 56.4531L31.4052 50.3928L29.8665 49.4153L29.8839 50.7742L24.7049 47.5314L24.6875 49.0519L21.296 46.8215L21.2997 45.7796L18.9649 44.2893L18.9814 42.401L16.1953 43.8821L16.2127 35.8805L17.6427 35.1109L17.644 28.9135Z" fill="#13171A"/>
<path d="M14.9576 33.011L16.2897 32.3136V34.1453L14.9576 34.8423V33.011Z" fill="#13171A"/>
<path d="M25.938 50.1448V52.1325L27.3821 53.0176V51.0321L25.938 50.1448Z" fill="#13171A"/>
<path d="M37.6506 12.7492V14.5479L39.0526 13.6926V11.8921L37.6506 12.7492Z" fill="#13171A"/>
<path d="M48.5566 18.086V20.1762L50.1169 19.4005L50.0949 17.3193L48.5566 18.086Z" fill="#13171A"/>
<path d="M19.039 26.6306L17.6194 27.3403V23.2784L20.0251 21.9377V20.2814L21.6812 19.2166V21.0701L25.6643 18.4672V20.7152L27.3207 19.7688V17.9153L28.622 17.2053V15.7463L31.1852 14.287V12.5915L33 11.4873V17.2843L31.1458 18.3095L31.2248 19.7688L25.9582 22.8296L25.9897 21.8786L23.7615 23.1405L23.7321 24.6587L21.5235 25.7151L21.5631 28.5234L20.3232 29.2068L20.3579 32.1248L21.5235 31.4545V39.736L22.9744 40.5513L22.9918 41.9489L27.3471 44.7663L27.3031 46.0238L28.4249 46.7555V48.0047L25.8221 46.585L25.835 45.3055L24.0823 44.337L24.0739 46.5593L21.7996 45.1433L21.8346 43.5483L19.6306 42.247L19.7096 40.3542L17.5974 41.384L17.571 36.8185L19.0489 36.08L19.039 26.6306Z" fill="#2C2C3C"/>
<path d="M33 53.7933L34.8135 52.5837V51.2384L37.495 49.5867L37.517 46.9005L39.2476 45.7173L39.2696 46.7694L43.8093 44.3417L43.835 45.8053L46.2277 44.3417V42.5185L48.4977 41.3006V36.2923L46.9377 37.1204L46.9201 28.6554L48.4977 27.8274L48.4627 23.6333L45.6801 25.2503L45.7325 22.1175L42.3515 20.24L42.3469 18.3951L41.1693 17.6678L41.1783 20.3161L37.5868 18.2435L37.5822 19.8719L39.758 21.0701L39.7778 22.5687L44.4532 25.3488L44.4926 32.2918L45.7791 31.5995L45.7371 34.0839L44.4948 34.802L44.4622 39.6002L42.0174 40.9457L42.0127 42.891L39.7034 44.1005L39.664 42.4222L37.6968 43.5483L37.6875 44.6389L34.8922 46.3263L34.8832 48.2449L33.011 49.306L33 53.7933Z" fill="#2C2C3C"/>
<path d="M23.1647 27.8997C23.3636 27.5095 23.8143 26.8508 24.2119 26.3938C24.8252 25.6883 26.5571 24.6343 27.1302 24.3958C27.9209 24.0667 29.1808 23.87 29.1808 23.87V22.9236C29.1808 22.9236 31.0211 22.836 31.7046 22.9236C32.232 22.9911 34.0971 23.239 35.6481 24.317C37.1991 25.395 38.4562 27.071 38.9785 28.4489C39.6095 30.1138 39.1083 31.9101 39.206 32.0683C39.2625 32.1598 39.7107 32.2692 39.8022 32.1779C39.9949 31.9851 40.0915 31.1263 40.1177 30.7056C40.1441 30.285 40.1595 28.7135 39.9465 27.8137C39.6706 26.6482 38.881 24.9865 37.5938 23.8005C35.8149 22.1613 34.1411 21.4337 34.036 21.355C33.9308 21.276 33.9016 21.0863 34.1497 21.1097C34.6141 21.1534 36.8225 22.0035 38.3781 23.3444C39.164 24.0218 40.5691 25.1935 41.349 27.8663C42.2231 30.8616 41.2612 34.5968 39.5479 36.4461C37.9304 38.1918 36.3845 38.575 35.5432 38.7592C34.7019 38.9433 32.6951 39.1536 30.9423 37.9306C30.9423 37.9306 31.3718 38.8555 33.4136 39.653C34.3937 40.0358 36.5834 39.9368 38.1196 39.219C39.7408 38.4613 41.1079 37.3045 41.8046 36.3581C42.262 35.7368 42.6111 35.0456 42.7506 34.7642C42.8023 34.6599 42.9825 34.6496 42.9854 34.7659C42.9878 34.8594 42.9579 35.1384 42.8529 35.4457C42.5656 36.2877 41.7817 37.6422 40.88 38.6063C39.9335 39.6183 38.7154 40.5121 36.8839 40.9853C35.7601 41.2757 35.2625 41.2746 35.2625 41.2746L35.2583 42.0108C35.2583 42.0108 32.9824 42.3058 30.6533 40.9941C28.0856 39.5481 26.9454 37.0451 26.7188 36.069C26.4466 34.8973 26.356 33.0759 26.9163 31.9196C26.9489 31.8523 26.9256 31.7709 26.8607 31.7335C26.7445 31.6664 26.5417 31.6204 26.4246 31.7522C26.2405 31.9594 25.4663 34.2514 25.505 35.6481C25.5616 37.69 26.5256 39.4865 27.5772 40.6171C28.6288 41.7476 30.1862 42.6523 30.3945 42.7821C30.4575 42.8215 30.5021 42.8553 30.5331 42.8828C30.5679 42.9134 30.5468 42.9713 30.5004 42.9708C30.186 42.9675 29.3566 42.6316 28.554 42.1771C27.5332 41.5989 25.3475 39.5776 24.6147 37.8655C23.6773 35.6748 23.4406 33.1947 24.2906 31.1791C25.3653 28.6308 26.9722 27.2268 28.7863 26.5562C30.4733 25.9327 32.8614 25.9692 34.9908 27.3143C34.9908 27.3143 34.1876 26.2132 32.6773 25.5792C31.7484 25.1891 30.3461 24.9876 28.7074 25.2197C26.6548 25.5103 25.0765 26.556 24.6061 26.9201C24.1417 27.2793 23.8203 27.6166 23.4978 28.0064C23.2652 28.2605 22.9585 28.3043 23.1647 27.8997Z" fill="url(#paint0_radial_209_4)"/>
<path d="M33.6501 31.3628C33.6501 31.3628 33.7093 30.081 32.5459 29.2596C31.4026 28.4522 29.9431 28.7648 28.8915 29.3696C27.8399 29.9743 26.9344 31.1027 26.6699 31.5599C26.3633 32.0901 26.1039 32.6933 25.9475 33.2424C25.5988 34.4663 25.2855 36.4991 25.2855 36.4991C25.2855 36.4991 25.0837 34.2775 25.1845 33.308C25.2855 32.3385 25.5484 31.1258 26.3107 30.1268C27.073 29.1278 28.2414 28.3309 29.128 27.971C30.0021 27.6162 31.7566 27.3544 33.011 28.0762C34.4388 28.8977 34.9206 29.7961 35.0783 30.5136C35.2361 31.231 35.3412 33.0585 33.7374 33.6895C33.7374 33.6895 34.4058 33.8206 34.8594 33.6235C35.6897 33.2625 36.4074 32.5164 36.4718 31.0732C36.5152 30.1 36.1739 28.6308 35.0962 27.3491C33.8259 25.8386 32.4766 25.4384 31.9763 25.2454C31.249 24.9649 28.8981 24.9047 28.8981 24.9047C28.8981 24.9047 30.6704 24.3602 32.4669 24.4741C33.2466 24.5236 34.5701 24.9737 35.6523 25.9422C36.7198 26.8974 37.8066 28.2476 37.8827 30.6262C37.9485 32.6768 36.6076 34.2148 35.5953 34.7013C34.7897 35.0885 32.6949 35.2796 31.9587 33.4919C31.9587 33.4919 31.678 35.2882 33.2818 36.0769C34.8856 36.8656 36.6221 36.1068 37.4882 35.4636C40.1172 33.5115 40.2673 29.2393 40.2673 29.2393C40.2673 29.2393 40.2488 31.2869 40.2488 31.783C40.2488 32.2793 40.1962 33.8336 38.9869 35.2532C37.7775 36.6729 36.4067 37.4299 34.8592 37.5406C33.5709 37.6325 32.0349 37.0165 31.2446 35.9368C30.4557 34.8588 30.1006 32.4665 31.7152 31.5223C31.7152 31.5223 30.9912 31.4453 30.3109 31.9847C29.5484 32.5895 29.1542 33.9126 29.3119 35.0693C29.4697 36.2261 30.3906 37.6466 30.9419 38.1808C31.5755 38.7946 32.1244 39.272 32.9925 39.6108C33.768 39.9135 35.9568 39.9595 35.9568 39.9595C35.9568 39.9595 32.6638 40.7653 30.3054 39.3107C29.4945 38.8106 28.1549 37.0148 28.0498 35.1483C27.9446 33.2816 28.3697 31.8743 29.8113 30.8275C30.9487 30.0023 32.7562 30.0744 33.6501 31.3628Z" fill="url(#paint1_radial_209_4)"/>
<defs>
<radialGradient id="paint0_radial_209_4" cx="0" cy="0" r="1" gradientUnits="userSpaceOnUse" gradientTransform="translate(33.041 32.0389) scale(7.89119 7.89592)">
<stop stop-color="#40247A"/>
<stop offset="0.3254" stop-color="#3D2376"/>
<stop offset="0.6616" stop-color="#362069"/>
<stop offset="1" stop-color="#291C55"/>
</radialGradient>
<radialGradient id="paint1_radial_209_4" cx="0" cy="0" r="1" gradientUnits="userSpaceOnUse" gradientTransform="translate(32.7118 32.3207) scale(7.71016)">
<stop stop-color="#953BCF"/>
<stop offset="0.2203" stop-color="#9139CC"/>
<stop offset="0.4479" stop-color="#8435C4"/>
<stop offset="0.6789" stop-color="#702DB7"/>
<stop offset="0.9109" stop-color="#5322A4"/>
<stop offset="0.986" stop-color="#481E9D"/>
</radialGradient>
</defs>
</svg>
