<svg width="16" height="16" viewBox="0 0 16 16" fill="none" xmlns="http://www.w3.org/2000/svg">
<path d="M10.3333 10.3333L15 15M6.44444 11.8889C5.72947 11.8889 5.0215 11.7481 4.36095 11.4745C3.7004 11.2008 3.1002 10.7998 2.59464 10.2942C2.08908 9.78868 1.68804 9.18849 1.41443 8.52794C1.14082 7.86739 1 7.15942 1 6.44444C1 5.72947 1.14082 5.0215 1.41443 4.36095C1.68804 3.7004 2.08908 3.1002 2.59464 2.59464C3.1002 2.08908 3.7004 1.68804 4.36095 1.41443C5.0215 1.14082 5.72947 1 6.44444 1C7.8884 1 9.27322 1.57361 10.2942 2.59464C11.3153 3.61567 11.8889 5.00049 11.8889 6.44444C11.8889 7.8884 11.3153 9.27322 10.2942 10.2942C9.27322 11.3153 7.8884 11.8889 6.44444 11.8889Z" stroke="#565664" stroke-width="2" stroke-linecap="round" stroke-linejoin="round"/>
</svg>
